{"title":"Street Dance 2010.BRRip.H264.Feel-Free","uid":5847753,"size":1688337834,"categoryP":"video","categoryS":"movies","magnet":"?xt=urn:btih:026355cc2d0925e6e42f49c59dee3ff6091347b9&amp;dn=Street+Dance+2010.BRRip.H264.Feel-Free&amp;tr=udp%3A%2F%2Ftracker.openbittorrent.com%3A80&amp;tr=udp%3A%2F%2Fopen.demonii.com%3A1337&amp;tr=udp%3A%2F%2Ftracker.coppersurfer.tk%3A6969&amp;tr=udp%3A%2F%2Fexodus.desync.com%3A6969","seeders":1,"leechers":0,"uploader":"neon","files":-1,"time":1285263676,"description":"Genre:Drama\nLanguage:English\n &lt;a href=&quot; http://www.imdb.com/title/tt1447972/&quot; rel=&quot;nofollow&quot; target=&quot;_NEW&quot;&gt; http://www.imdb.com/title/tt1447972/&lt;/a&gt;\nSource:ALLiANCE\n\nGeneral\nComplete name :Street.Dance.2010.BRRip.H264.Feel-Free\nFormat : MPEG-4\nFormat profile : Base Media\nCodec ID : isom\nFile size : 1.57 GiB\nDuration : 1h 38mn\nOverall bit rate : 2 286 Kbps\nVideo #1\nID : 1\nFormat : AVC\nFormat/Info : Advanced Video Codec\nFormat profile : &lt;a class=&quot;__cf_email__&quot; href=&quot;/cdn-cgi/l/email-protection&quot; data-cfemail=&quot;eaa88b998f8683848faaa6dfc4db&quot;&gt;[email&amp;#160;protected]&lt;/a&gt;&lt;script data-cfhash='f9e31' type=&quot;text/javascript&quot;&gt;\n/* &lt;![CDATA[ */!function(){try{var t=&quot;currentScript&quot;in document?document.currentScript:function(){for(var t=document.getElementsByTagName(&quot;script&quot;),e=t.length;e--;)if(t[e].getAttribute(&quot;data-cfhash&quot;))return t[e]}();if(t&amp;&amp;t.previousSibling){var e,r,n,i,c=t.previousSibling,a=c.getAttribute(&quot;data-cfemail&quot;);if(a){for(e=&quot;&quot;,r=parseInt(a.substr(0,2),16),n=2;a.length-n;n+=2)i=parseInt(a.substr(n,2),16)^r,e+=String.fromCharCode(i);e=document.createTextNode(e),c.parentNode.replaceChild(e,c)}t.parentNode.removeChild(t);}}catch(u){}}()/* ]]&gt; */&lt;/script&gt;\nFormat settings, CABAC : No\nFormat settings, ReFrames : 1 frame\nCodec ID : avc1\nCodec ID/Info : Advanced Video Coding\nDuration : 1h 38mn\nBit rate mode : Variable\nBit rate : 2 035 Kbps\nWidth : 652 pixels\nHeight : 352 pixels\nDisplay aspect ratio : 16:9\nFrame rate mode : Constant\nFrame rate : 23.976 fps\nResolution : 24 bits\nColorimetry : 4:2:0\nScan type : Progressive\nBits/(Pixel*Frame) : 0.370\nStream size : 1.40 GiB (89%)\nAudio #2\nID : 2\nFormat : AAC\nFormat/Info : Advanced Audio Codec\nFormat version : Version 4\nFormat profile : LC\nFormat settings, SBR : No\nCodec ID : 40\nDuration : 1h 38mn\nBit rate mode : Variable\nBit rate : 246 Kbps\nChannel(s) : 6 channels\nChannel positions : Front: L C R, Rear: L R, LFE\nSampling rate : 48.0 KHz\nResolution : 16 bits\nStream size : 173 MiB (11%)\n\nPlot\nIn order to win the Street Dance Championships, a dance crew is forced to work with ballet dancers from the Royal Dance School in exchange for rehearsal space","torrent":{"xt":"urn:btih:026355cc2d0925e6e42f49c59dee3ff6091347b9","amp;dn":"Street+Dance+2010.BRRip.H264.Feel-Free","amp;tr":["udp%3A%2F%2Ftracker.openbittorrent.com%3A80","udp%3A%2F%2Fopen.demonii.com%3A1337","udp%3A%2F%2Ftracker.coppersurfer.tk%3A6969","udp%3A%2F%2Fexodus.desync.com%3A6969"],"infoHash":"026355cc2d0925e6e42f49c59dee3ff6091347b9","infoHashBuffer":{"type":"Buffer","data":[2,99,85,204,45,9,37,230,228,47,73,197,157,238,63,246,9,19,71,185]},"announce":[],"urlList":[]}}